<?xml version="1.0" standalone="no"?>
<!DOCTYPE svg PUBLIC "-//W3C//DTD SVG 20010904//EN"
 "http://www.w3.org/TR/2001/REC-SVG-20010904/DTD/svg10.dtd">
<svg version="1.0" xmlns="http://www.w3.org/2000/svg"
 width="512.000000pt" height="512.000000pt" viewBox="0 0 512.000000 512.000000"
 preserveAspectRatio="xMidYMid meet">
<metadata>
Created by potrace 1.11, written by Peter Selinger 2001-2013
</metadata>
<g transform="translate(0.000000,512.000000) scale(0.100000,-0.100000)"
fill="#000000" stroke="none">
<path d="M1650 4894 c-30 -8 -80 -27 -110 -42 -73 -35 -189 -151 -223 -222
-61 -126 -57 2 -57 -2070 0 -2072 -4 -1944 57 -2070 35 -73 150 -187 225 -223
122 -58 97 -57 1018 -57 922 0 896 -1 1018 58 85 41 184 143 227 233 19 41 39
98 45 128 6 35 10 706 10 1940 0 2064 4 1936 -58 2061 -36 73 -151 188 -224
223 -122 59 -96 57 -1023 56 -712 0 -859 -3 -905 -15z m1876 -486 c42 -23 81
-71 94 -116 8 -26 10 -511 8 -1609 l-3 -1571 -31 -39 c-17 -21 -46 -47 -65
-58 -33 -20 -52 -20 -959 -20 -509 0 -937 3 -952 7 -40 12 -89 57 -109 103
-18 38 -19 108 -19 1603 0 1388 2 1567 15 1600 17 40 48 77 80 95 27 16 435
23 1255 23 599 -1 658 -2 686 -18z"/>
<path d="M1840 3240 l0 -240 245 0 245 0 0 240 0 240 -245 0 -245 0 0 -240z
m410 0 l0 -170 -165 0 -165 0 0 170 0 170 165 0 165 0 0 -170z"/>
<path d="M1980 3240 l0 -110 105 0 105 0 0 110 0 110 -105 0 -105 0 0 -110z"/>
<path d="M2520 3445 c0 -34 1 -35 40 -35 39 0 40 1 40 35 0 34 -1 35 -40 35
-39 0 -40 -1 -40 -35z"/>
<path d="M2660 3410 l0 -70 35 0 35 0 0 70 0 70 -35 0 -35 0 0 -70z"/>
<path d="M2797 3473 c-4 -3 -7 -111 -7 -240 l0 -233 245 0 245 0 0 240 0 240
-238 0 c-131 0 -242 -3 -245 -7z m403 -233 l0 -170 -165 0 -165 0 0 170 0 170
165 0 165 0 0 -170z"/>
<path d="M2934 3337 c-3 -8 -3 -56 -2 -108 l3 -94 103 -3 102 -3 0 111 0 110
-100 0 c-74 0 -102 -3 -106 -13z"/>
<path d="M2388 3315 c-5 -43 -3 -45 39 -45 32 0 33 1 33 40 0 39 -1 40 -34 40
-31 0 -34 -3 -38 -35z"/>
<path d="M2527 3344 c-4 -4 -7 -22 -7 -41 0 -32 1 -33 41 -33 l40 0 -3 38 c-3
33 -6 37 -33 40 -17 2 -34 0 -38 -4z"/>
<path d="M2660 3245 c0 -33 -2 -35 -35 -35 -33 0 -35 -2 -35 -35 0 -32 -2 -35
-30 -35 -28 0 -30 3 -30 35 0 34 -1 35 -40 35 l-40 0 0 -70 0 -70 -30 0 c-30
0 -30 -1 -31 -57 -1 -32 -1 -61 0 -65 0 -5 -62 -8 -139 -8 l-140 0 0 -35 c0
-32 -2 -35 -30 -35 -28 0 -30 3 -30 35 l0 35 -105 0 -105 0 0 -175 0 -175 40
0 c39 0 40 1 40 35 l0 35 60 0 60 0 0 -35 c0 -34 1 -35 41 -35 l40 0 -3 38
c-3 34 -6 37 -35 40 -27 3 -33 7 -33 28 0 23 3 24 65 24 l65 0 0 -65 0 -65 76
0 75 0 -3 38 c-3 35 -5 37 -35 37 -29 0 -33 3 -33 27 0 23 5 27 33 30 29 3 32
6 35 41 3 36 3 37 -32 37 -33 0 -36 2 -36 30 l0 30 65 0 c36 0 64 -3 64 -7 -1
-5 -1 -50 0 -100 l1 -93 100 0 100 0 0 -30 0 -30 -100 0 -100 0 0 -140 0 -140
30 0 c27 0 30 -3 30 -30 0 -27 -3 -30 -30 -30 l-30 0 0 -110 0 -111 138 3 137
3 3 33 c3 28 7 32 33 32 27 0 29 -3 29 -35 l0 -35 70 0 70 0 0 40 c0 39 -1 40
-35 40 -32 0 -35 2 -35 30 l0 30 105 0 105 0 0 70 0 70 35 0 c33 0 35 2 35 35
0 33 -2 35 -35 35 l-35 0 0 65 0 65 30 0 30 0 0 70 0 70 -30 0 c-27 0 -30 3
-30 33 l0 32 132 0 133 0 3 73 3 72 -71 0 -70 0 0 35 c0 33 -2 35 -35 35 -33
0 -35 -2 -35 -35 0 -33 -2 -35 -35 -35 l-35 0 0 -70 0 -70 -30 0 -30 0 0 70 0
70 -35 0 c-33 0 -35 2 -35 35 l0 35 -105 0 -105 0 0 -35 c0 -32 -2 -35 -30
-35 l-30 0 0 98 0 97 30 0 c27 0 30 -3 30 -32 0 -31 2 -33 35 -33 33 0 35 2
35 35 0 32 -2 35 -30 35 -27 0 -30 3 -30 30 0 27 3 30 30 30 l30 0 0 75 0 75
-35 0 c-33 0 -35 -2 -35 -35z m-140 -282 l0 -103 35 0 c32 0 35 -2 35 -30 l0
-30 -65 0 -65 0 0 133 0 132 30 0 30 0 0 -102z m-340 -133 c0 -27 -3 -30 -30
-30 -27 0 -30 3 -30 30 0 27 3 30 30 30 27 0 30 -3 30 -30z m550 -35 l0 -65
-30 0 -30 0 0 65 0 65 30 0 30 0 0 -65z m130 35 c0 -27 -3 -30 -30 -30 -27 0
-30 3 -30 30 0 27 3 30 30 30 27 0 30 -3 30 -30z m280 0 c0 -28 -3 -30 -35
-30 -32 0 -35 2 -35 30 0 28 3 30 35 30 32 0 35 -2 35 -30z m-1100 -70 c0 -25
-4 -30 -25 -30 -21 0 -25 5 -25 30 0 25 4 30 25 30 21 0 25 -5 25 -30z m210 0
c0 -27 -3 -30 -30 -30 -27 0 -30 3 -30 30 0 27 3 30 30 30 27 0 30 -3 30 -30z
m610 -68 c0 -26 -3 -28 -30 -24 -24 3 -30 9 -30 28 0 20 5 24 30 24 26 0 30
-4 30 -28z m-130 -67 c0 -32 2 -35 29 -35 26 0 30 -4 33 -32 l3 -33 68 -3 c67
-3 67 -3 67 -32 l0 -30 -70 0 -70 0 0 -71 0 -70 -27 3 c-23 2 -29 8 -31 36 -3
29 -6 32 -38 32 -32 0 -34 -2 -34 -35 0 -33 -2 -35 -35 -35 l-35 0 0 -65 0
-65 -30 0 -30 0 0 94 0 95 33 3 c29 3 32 6 35 41 l3 37 -40 0 c-40 0 -41 -1
-41 -35 0 -32 -2 -35 -30 -35 l-30 0 0 65 0 65 70 0 70 0 0 35 c0 33 2 35 35
35 33 0 35 2 35 35 0 32 2 35 30 35 28 0 30 -3 30 -35z m270 -30 l0 -65 -30 0
-30 0 0 65 0 65 30 0 30 0 0 -65z m0 -245 c0 -27 -3 -30 -30 -30 -27 0 -30 3
-30 30 0 27 3 30 30 30 27 0 30 -3 30 -30z m-272 -97 l3 -63 -31 0 -30 0 0 66
0 65 28 -3 c26 -3 27 -6 30 -65z m132 37 c0 -27 -3 -30 -30 -30 -27 0 -30 3
-30 30 0 27 3 30 30 30 27 0 30 -3 30 -30z m-340 -140 c0 -27 -3 -30 -30 -30
-27 0 -30 3 -30 30 0 27 3 30 30 30 27 0 30 -3 30 -30z"/>
<path d="M2660 2490 c0 -39 1 -40 35 -40 34 0 35 1 35 40 0 39 -1 40 -35 40
-34 0 -35 -1 -35 -40z"/>
<path d="M3140 2460 l0 -200 -35 0 c-34 0 -35 -1 -35 -40 0 -38 2 -40 30 -40
29 0 29 0 32 -67 l3 -68 70 0 70 0 3 38 c3 36 3 37 -32 37 -33 0 -36 2 -36 30
0 28 3 30 36 30 35 0 35 1 32 38 -3 34 -6 37 -35 40 -29 3 -33 7 -33 33 0 27
3 29 35 29 l36 0 -3 138 -3 137 -32 3 c-29 3 -33 7 -33 33 0 27 -3 29 -35 29
l-35 0 0 -200z m60 -240 c0 -27 -3 -30 -30 -30 -27 0 -30 3 -30 30 0 27 3 30
30 30 27 0 30 -3 30 -30z"/>
<path d="M1840 2285 l0 -245 243 2 242 3 0 240 0 240 -242 3 -243 2 0 -245z
m410 0 l0 -165 -165 0 -165 0 0 165 0 165 165 0 165 0 0 -165z"/>
<path d="M1980 2285 l0 -105 105 0 105 0 0 105 0 105 -105 0 -105 0 0 -105z"/>
</g>
</svg>
